<?xml version="1.0" encoding="UTF-8"?>
<svg id="Layer_2" data-name="Layer 2" xmlns="http://www.w3.org/2000/svg" viewBox="0 0 595.28 841.89">
  <defs>
    <style>
      .cls-1 {
        fill: #fff;
      }
    </style>
  </defs>
  <g>
    <path class="cls-1" d="M94.53,399.61c6.11,6.9,9.17,16.26,9.17,28.04v52.54h-31.5v-48.37c0-5.14-1.33-9.18-4.01-12.12-2.68-2.96-6.26-4.42-10.76-4.42-4.72,0-8.42,1.46-11.09,4.42-2.68,2.94-4.01,6.98-4.01,12.12v48.37H10.81v-90.15h31.5v12.85c2.79-4.07,6.53-7.36,11.25-9.87,4.71-2.52,10.12-3.78,16.23-3.78,10.38,0,18.64,3.45,24.74,10.37Z"/>
    <path class="cls-1" d="M152.54,390.04v90.15h-31.5v-90.15h31.5Z"/>
    <path class="cls-1" d="M219.78,392.61c4.55,2.47,8.07,5.78,10.53,9.96v-12.54h31.5v89.19c0,8.46-1.61,16.1-4.83,22.9s-8.23,12.24-15.03,16.32c-6.8,4.07-15.41,6.09-25.79,6.09-13.93,0-25.07-3.26-33.43-9.79-8.36-6.54-13.13-15.43-14.31-26.68h31.02c.64,2.89,2.25,5.14,4.83,6.75,2.56,1.61,5.88,2.42,9.95,2.42,10.72,0,16.07-6,16.07-18.01v-11.56c-2.46,4.17-5.98,7.49-10.53,9.95-4.55,2.47-9.87,3.7-15.98,3.7-7.18,0-13.69-1.87-19.52-5.62-5.85-3.75-10.45-9.13-13.82-16.15-3.37-7.01-5.06-15.18-5.06-24.51s1.69-17.46,5.06-24.43c3.37-6.96,7.98-12.32,13.82-16.07,5.83-3.74,12.34-5.62,19.52-5.62,6.11,0,11.43,1.24,15.98,3.7ZM225.58,421.38c-3.16-3.32-7.05-4.98-11.65-4.98s-8.63,1.63-11.73,4.89c-3.11,3.27-4.66,7.86-4.66,13.74s1.54,10.37,4.66,13.74c3.1,3.37,7.01,5.06,11.73,5.06s8.49-1.66,11.65-4.98c3.15-3.32,4.73-7.92,4.73-13.82s-1.58-10.33-4.73-13.65Z"/>
    <path class="cls-1" d="M279.73,410.61c3.37-6.96,7.98-12.32,13.82-16.07,5.83-3.74,12.34-5.62,19.52-5.62,6.21,0,11.56,1.24,16.07,3.7,4.5,2.47,7.98,5.78,10.44,9.96v-12.54h31.5v90.15h-31.5v-12.53c-2.46,4.17-5.98,7.49-10.53,9.95-4.55,2.47-9.87,3.7-15.98,3.7-7.18,0-13.69-1.87-19.52-5.62-5.85-3.75-10.45-9.13-13.82-16.15-3.37-7.01-5.06-15.18-5.06-24.51s1.69-17.46,5.06-24.43ZM334.85,421.38c-3.16-3.32-7.05-4.98-11.65-4.98s-8.63,1.63-11.73,4.89c-3.11,3.27-4.66,7.86-4.66,13.74s1.54,10.37,4.66,13.74c3.1,3.37,7.01,5.06,11.73,5.06s8.49-1.66,11.65-4.98c3.15-3.32,4.73-7.92,4.73-13.82s-1.58-10.33-4.73-13.65Z"/>
    <path class="cls-1" d="M431.02,392.61c4.5-2.46,9.81-3.7,15.92-3.7,7.18,0,13.68,1.88,19.52,5.62,5.83,3.75,10.45,9.11,13.82,16.07,3.37,6.97,5.06,15.1,5.06,24.43s-1.69,17.5-5.06,24.51c-3.37,7.02-7.99,12.4-13.82,16.15-5.85,3.75-12.34,5.62-19.52,5.62-6.11,0-11.39-1.23-15.84-3.7-4.45-2.46-7.95-5.78-10.51-9.95v55.59h-31.5v-133.22h31.5v12.54c2.46-4.18,5.94-7.49,10.44-9.96ZM448.62,421.29c-3.16-3.26-7.05-4.89-11.65-4.89s-8.49,1.66-11.65,4.98-4.73,7.87-4.73,13.65,1.57,10.5,4.73,13.82,7.05,4.98,11.65,4.98,8.49-1.69,11.65-5.06c3.15-3.37,4.73-7.96,4.73-13.74s-1.58-10.47-4.73-13.74Z"/>
    <path class="cls-1" d="M584,441.47h-59.62c.31,4.92,1.69,8.59,4.09,11,2.41,2.42,5.49,3.62,9.25,3.62,5.24,0,9-2.35,11.25-7.07h33.58c-1.4,6.21-4.09,11.76-8.12,16.63-4.01,4.88-9.08,8.71-15.18,11.49-6.11,2.79-12.85,4.17-20.24,4.17-8.89,0-16.79-1.87-23.7-5.62-6.92-3.75-12.33-9.1-16.24-16.07-3.91-6.96-5.86-15.16-5.86-24.59s1.92-17.59,5.78-24.51c3.86-6.9,9.25-12.24,16.15-15.99,6.92-3.74,14.87-5.62,23.87-5.62s16.77,1.83,23.62,5.47c6.85,3.65,12.21,8.87,16.07,15.67,3.86,6.81,5.78,14.82,5.78,24.02,0,2.47-.16,4.93-.47,7.4ZM552.34,426.2c0-3.86-1.28-6.88-3.86-9.08-2.58-2.2-5.78-3.3-9.64-3.3s-7.02,1.05-9.48,3.14c-2.47,2.08-4.08,5.17-4.83,9.23h27.8Z"/>
  </g>
  <g>
    <g>
      <path class="cls-1" d="M123.44,331.65s15.74-4.43,24.35-11.8c0,0-19.92-10.57-24.35,11.8Z"/>
      <path class="cls-1" d="M139.94,328.71s14.26,8,25.56,8.87c0,0-6.61-21.56-25.56-8.87Z"/>
      <path class="cls-1" d="M153.69,338.29s4.43,15.74,11.8,24.35c0,0,10.57-19.92-11.8-24.35Z"/>
      <path class="cls-1" d="M156.64,354.79s-8,14.26-8.87,25.56c0,0,21.56-6.61,8.87-25.56Z"/>
      <path class="cls-1" d="M147.05,368.54s-15.74,4.43-24.35,11.8c0,0,19.92,10.57,24.35-11.8Z"/>
      <path class="cls-1" d="M130.55,371.49s-14.26-8-25.56-8.87c0,0,6.61,21.56,25.56,8.87Z"/>
      <path class="cls-1" d="M116.8,361.9s-4.43-15.74-11.8-24.35c0,0-10.57,19.92,11.8,24.35Z"/>
      <path class="cls-1" d="M113.86,345.4s8-14.26,8.87-25.56c0,0-21.56,6.61-8.87,25.56Z"/>
    </g>
    <g>
      <path class="cls-1" d="M135.12,355.59h-5.78l-.88,2.66h-4.76l5.94-16.3h5.22l5.92,16.3h-4.78l-.88-2.66ZM133.99,352.12l-1.76-5.27-1.73,5.27h3.49Z"/>
      <path class="cls-1" d="M146.79,341.95v16.3h-4.53v-16.3h4.53Z"/>
    </g>
  </g>
  <g>
    <path class="cls-1" d="M195.57,345.4h-1.35l-7.46-11.33v11.33h-1.35v-13.47h1.35l7.46,11.31v-11.31h1.35v13.47Z"/>
    <path class="cls-1" d="M198.67,337.28c.43-.82,1.03-1.44,1.79-1.89.76-.44,1.63-.66,2.59-.66s1.87.23,2.59.69c.73.46,1.25,1.05,1.57,1.77v-2.31h1.35v10.52h-1.35v-2.33c-.33.72-.86,1.31-1.59,1.78s-1.59.7-2.59.7-1.81-.22-2.57-.67-1.36-1.09-1.79-1.91c-.43-.82-.65-1.77-.65-2.85s.21-2.03.65-2.84ZM206.69,337.91c-.35-.64-.82-1.14-1.42-1.48-.6-.35-1.25-.52-1.98-.52s-1.41.17-2,.5-1.06.82-1.4,1.45-.51,1.39-.51,2.26.17,1.62.51,2.26c.34.65.81,1.14,1.4,1.48s1.26.51,2,.51,1.38-.17,1.98-.52c.6-.35,1.07-.84,1.42-1.48.35-.64.52-1.39.52-2.23s-.17-1.59-.52-2.23Z"/>
    <path class="cls-1" d="M213.39,336.02v6.53c0,.64.12,1.09.37,1.33.24.24.67.37,1.29.37h1.23v1.16h-1.44c-.95,0-1.66-.22-2.12-.66-.46-.44-.69-1.17-.69-2.19v-6.53h-1.46v-1.14h1.46v-2.64h1.37v2.64h2.89v1.14h-2.89Z"/>
    <path class="cls-1" d="M220.43,344.89c-.79-.44-1.41-1.07-1.87-1.89-.46-.81-.68-1.77-.68-2.86s.23-2.04.69-2.86c.46-.82,1.09-1.44,1.89-1.89.8-.44,1.69-.66,2.68-.66s1.89.22,2.69.66c.8.44,1.43,1.07,1.89,1.89.46.81.68,1.77.68,2.86s-.23,2.03-.69,2.85-1.1,1.45-1.91,1.9c-.81.44-1.71.66-2.7.66s-1.88-.22-2.67-.66ZM225.03,343.91c.59-.31,1.07-.79,1.43-1.42.37-.64.55-1.42.55-2.34s-.18-1.7-.54-2.34c-.36-.64-.84-1.11-1.43-1.42-.59-.32-1.23-.47-1.93-.47s-1.34.16-1.93.47c-.59.31-1.06.79-1.42,1.42s-.53,1.42-.53,2.34.17,1.71.53,2.34.82,1.11,1.41,1.42c.58.32,1.22.47,1.92.47s1.33-.16,1.93-.47Z"/>
    <path class="cls-1" d="M238.88,335.86c.8.78,1.19,1.9,1.19,3.38v6.16h-1.33v-6.01c0-1.14-.29-2.02-.86-2.62-.57-.6-1.35-.9-2.34-.9s-1.82.32-2.43.96c-.6.64-.9,1.59-.9,2.83v5.74h-1.35v-10.52h1.35v1.79c.33-.64.81-1.13,1.44-1.47.63-.34,1.34-.51,2.14-.51,1.26,0,2.29.39,3.08,1.16Z"/>
    <path class="cls-1" d="M243.09,337.28c.43-.82,1.03-1.44,1.79-1.89.76-.44,1.63-.66,2.59-.66s1.87.23,2.59.69c.73.46,1.25,1.05,1.57,1.77v-2.31h1.35v10.52h-1.35v-2.33c-.33.72-.86,1.31-1.59,1.78s-1.59.7-2.59.7-1.81-.22-2.57-.67-1.36-1.09-1.79-1.91c-.43-.82-.65-1.77-.65-2.85s.21-2.03.65-2.84ZM251.11,337.91c-.35-.64-.82-1.14-1.42-1.48-.6-.35-1.25-.52-1.98-.52s-1.41.17-2,.5-1.06.82-1.4,1.45-.51,1.39-.51,2.26.17,1.62.51,2.26c.34.65.81,1.14,1.4,1.48s1.26.51,2,.51,1.38-.17,1.98-.52c.6-.35,1.07-.84,1.42-1.48.35-.64.52-1.39.52-2.23s-.17-1.59-.52-2.23Z"/>
    <path class="cls-1" d="M257.41,331.15v14.26h-1.35v-14.26h1.35Z"/>
    <path class="cls-1" d="M267.1,331.94v13.47h-1.35v-13.47h1.35Z"/>
    <path class="cls-1" d="M278.18,335.86c.8.78,1.19,1.9,1.19,3.38v6.16h-1.33v-6.01c0-1.14-.29-2.02-.86-2.62-.57-.6-1.35-.9-2.34-.9s-1.82.32-2.43.96c-.6.64-.9,1.59-.9,2.83v5.74h-1.35v-10.52h1.35v1.79c.33-.64.81-1.13,1.44-1.47.63-.34,1.34-.51,2.14-.51,1.26,0,2.29.39,3.08,1.16Z"/>
    <path class="cls-1" d="M283.02,344.72c-.76-.56-1.19-1.32-1.28-2.28h1.39c.06.59.34,1.07.84,1.44.49.36,1.16.55,1.99.55.73,0,1.31-.17,1.73-.52.42-.35.62-.78.62-1.29,0-.36-.11-.65-.35-.89s-.52-.41-.88-.55c-.35-.13-.83-.28-1.44-.43-.78-.21-1.42-.41-1.91-.62-.49-.21-.9-.51-1.24-.91s-.51-.95-.51-1.63c0-.51.15-.99.46-1.43.31-.44.74-.78,1.31-1.04.56-.26,1.21-.39,1.93-.39,1.13,0,2.04.29,2.74.86.69.57,1.06,1.36,1.12,2.36h-1.35c-.04-.62-.28-1.11-.72-1.49-.44-.38-1.05-.57-1.82-.57-.68,0-1.23.16-1.66.48-.43.32-.64.72-.64,1.19,0,.41.12.75.37,1.01s.56.47.94.62c.37.15.87.31,1.5.49.76.21,1.36.4,1.81.6.45.19.84.48,1.16.85.32.37.49.87.5,1.48,0,.57-.15,1.07-.46,1.51-.31.44-.74.79-1.29,1.05-.55.26-1.19.39-1.91.39-1.21,0-2.19-.28-2.96-.84Z"/>
    <path class="cls-1" d="M293.93,336.02v6.53c0,.64.12,1.09.37,1.33.24.24.67.37,1.29.37h1.23v1.16h-1.44c-.95,0-1.66-.22-2.12-.66-.46-.44-.69-1.17-.69-2.19v-6.53h-1.46v-1.14h1.46v-2.64h1.37v2.64h2.89v1.14h-2.89Z"/>
    <path class="cls-1" d="M299.02,332.61c-.19-.19-.29-.43-.29-.71s.1-.52.29-.7.42-.28.69-.28.5.09.69.28c.19.19.29.42.29.7s-.1.52-.29.71-.42.29-.69.29-.5-.1-.69-.29ZM300.39,334.88v10.52h-1.35v-10.52h1.35Z"/>
    <path class="cls-1" d="M305.2,336.02v6.53c0,.64.12,1.09.37,1.33.24.24.67.37,1.29.37h1.23v1.16h-1.44c-.95,0-1.66-.22-2.12-.66-.46-.44-.69-1.17-.69-2.19v-6.53h-1.46v-1.14h1.46v-2.64h1.37v2.64h2.89v1.14h-2.89Z"/>
    <path class="cls-1" d="M319.42,334.88v10.52h-1.35v-1.85c-.31.65-.78,1.16-1.43,1.5-.64.35-1.36.52-2.16.52-1.26,0-2.29-.39-3.08-1.16s-1.19-1.9-1.19-3.38v-6.15h1.33v5.99c0,1.14.28,2.01.86,2.62s1.35.91,2.34.91,1.82-.32,2.43-.96c.6-.64.9-1.59.9-2.83v-5.72h1.35Z"/>
    <path class="cls-1" d="M324.25,336.02v6.53c0,.64.12,1.09.37,1.33.24.24.67.37,1.29.37h1.23v1.16h-1.44c-.95,0-1.66-.22-2.12-.66-.46-.44-.69-1.17-.69-2.19v-6.53h-1.46v-1.14h1.46v-2.64h1.37v2.64h2.89v1.14h-2.89Z"/>
    <path class="cls-1" d="M338.84,340.66h-8.73c.04.8.23,1.48.58,2.04.35.57.8.99,1.37,1.28.56.29,1.18.43,1.85.43.87,0,1.61-.21,2.2-.64.6-.42.99-1,1.19-1.72h1.43c-.26,1.03-.81,1.87-1.65,2.52s-1.9.97-3.17.97c-.99,0-1.88-.22-2.66-.66-.78-.44-1.4-1.07-1.84-1.89-.44-.81-.66-1.77-.66-2.86s.22-2.05.65-2.87,1.05-1.45,1.83-1.89c.78-.44,1.68-.65,2.68-.65s1.88.22,2.63.65c.75.44,1.33,1.03,1.73,1.76.4.74.61,1.56.61,2.46,0,.46-.01.81-.04,1.06ZM337.04,337.56c-.33-.55-.78-.97-1.34-1.25s-1.18-.43-1.85-.43c-1,0-1.85.32-2.56.96-.71.64-1.1,1.55-1.17,2.72h7.4c.01-.78-.14-1.45-.47-2Z"/>
    <path class="cls-1" d="M353.83,344.89c-.79-.44-1.41-1.07-1.87-1.89-.46-.81-.68-1.77-.68-2.86s.23-2.04.69-2.86c.46-.82,1.09-1.44,1.89-1.89.8-.44,1.69-.66,2.68-.66s1.89.22,2.69.66c.8.44,1.43,1.07,1.89,1.89.46.81.68,1.77.68,2.86s-.23,2.03-.69,2.85-1.1,1.45-1.91,1.9c-.81.44-1.71.66-2.7.66s-1.88-.22-2.67-.66ZM358.43,343.91c.59-.31,1.07-.79,1.43-1.42.37-.64.55-1.42.55-2.34s-.18-1.7-.54-2.34c-.36-.64-.84-1.11-1.43-1.42-.59-.32-1.23-.47-1.93-.47s-1.34.16-1.93.47c-.59.31-1.06.79-1.42,1.42s-.53,1.42-.53,2.34.17,1.71.53,2.34.82,1.11,1.41,1.42c.58.32,1.22.47,1.92.47s1.33-.16,1.93-.47Z"/>
    <path class="cls-1" d="M368.41,336.02h-2.45v9.38h-1.35v-9.38h-1.47v-1.14h1.47v-.73c0-1.14.29-1.98.87-2.52.59-.54,1.53-.81,2.84-.81v1.16c-.87,0-1.49.17-1.84.5-.35.33-.53.89-.53,1.68v.73h2.45v1.14Z"/>
    <path class="cls-1" d="M386.4,335.87c-.39-.89-.97-1.58-1.76-2.09-.79-.51-1.72-.76-2.78-.76-1,0-1.9.23-2.7.69-.8.46-1.43,1.12-1.89,1.98-.46.85-.69,1.85-.69,2.98s.23,2.13.69,2.99c.46.86,1.09,1.52,1.89,1.98s1.7.69,2.7.69c.94,0,1.78-.2,2.53-.61s1.35-.98,1.81-1.73c.46-.75.71-1.63.78-2.63h-5.66v-1.1h7.09v.98c-.06,1.18-.39,2.25-.96,3.21-.58.96-1.35,1.71-2.32,2.26-.97.55-2.06.83-3.26.83s-2.38-.29-3.39-.88c-1.01-.59-1.81-1.4-2.4-2.45-.58-1.05-.87-2.23-.87-3.55s.29-2.51.87-3.55c.59-1.05,1.38-1.86,2.4-2.45,1.02-.58,2.14-.88,3.39-.88,1.44,0,2.7.36,3.78,1.08,1.08.72,1.86,1.72,2.35,3h-1.58Z"/>
    <path class="cls-1" d="M400.35,340.66h-8.73c.04.8.23,1.48.58,2.04.35.57.8.99,1.37,1.28.56.29,1.18.43,1.85.43.87,0,1.61-.21,2.2-.64.6-.42.99-1,1.19-1.72h1.43c-.26,1.03-.81,1.87-1.65,2.52s-1.9.97-3.17.97c-.99,0-1.88-.22-2.66-.66-.78-.44-1.4-1.07-1.84-1.89-.44-.81-.66-1.77-.66-2.86s.22-2.05.65-2.87,1.05-1.45,1.83-1.89c.78-.44,1.68-.65,2.68-.65s1.88.22,2.63.65c.75.44,1.33,1.03,1.73,1.76.4.74.61,1.56.61,2.46,0,.46-.01.81-.04,1.06ZM398.55,337.56c-.33-.55-.78-.97-1.34-1.25s-1.18-.43-1.85-.43c-1,0-1.85.32-2.56.96-.71.64-1.1,1.55-1.17,2.72h7.4c.01-.78-.14-1.45-.47-2Z"/>
    <path class="cls-1" d="M410.87,335.86c.8.78,1.19,1.9,1.19,3.38v6.16h-1.33v-6.01c0-1.14-.29-2.02-.86-2.62-.57-.6-1.35-.9-2.34-.9s-1.82.32-2.43.96c-.6.64-.9,1.59-.9,2.83v5.74h-1.35v-10.52h1.35v1.79c.33-.64.81-1.13,1.44-1.47.63-.34,1.34-.51,2.14-.51,1.26,0,2.29.39,3.08,1.16Z"/>
    <path class="cls-1" d="M428.13,342.2h-6.13l-1.18,3.2h-1.42l4.91-13.29h1.52l4.89,13.29h-1.43l-1.18-3.2ZM427.72,341.09l-2.66-7.28-2.66,7.28h5.32Z"/>
    <path class="cls-1" d="M434.23,331.94v13.47h-1.35v-13.47h1.35Z"/>
    <path class="cls-1" d="M452.82,345.4l-1.83-1.87c-.65.72-1.35,1.25-2.1,1.59-.74.34-1.59.51-2.52.51s-1.7-.17-2.39-.51c-.69-.34-1.23-.82-1.62-1.44-.39-.62-.58-1.33-.58-2.14,0-.95.27-1.78.81-2.49.54-.71,1.33-1.26,2.37-1.66-.45-.5-.78-.97-.98-1.4-.21-.43-.31-.9-.31-1.4,0-.86.31-1.56.92-2.09.62-.53,1.44-.8,2.47-.8.96,0,1.75.27,2.35.83s.89,1.27.85,2.16h-1.35c.01-.58-.16-1.03-.53-1.37-.37-.33-.83-.5-1.38-.5-.59,0-1.07.16-1.43.49-.37.33-.55.75-.55,1.26,0,.41.11.81.34,1.19.22.39.58.84,1.07,1.37l4.43,4.49c.18-.24.43-.63.73-1.16l1.23-2.06h1.44l-1.46,2.52c-.35.6-.69,1.14-1.04,1.62l2.81,2.83h-1.75ZM448.4,344.02c.6-.3,1.16-.76,1.7-1.39l-4.29-4.35c-1.79.65-2.68,1.73-2.68,3.24,0,.56.14,1.07.41,1.51.28.44.66.79,1.15,1.05.49.26,1.05.39,1.67.39.76,0,1.44-.15,2.03-.44Z"/>
    <path class="cls-1" d="M192.89,361.72c-.76.71-1.89,1.06-3.41,1.06h-2.72v5.74h-1.35v-13.47h4.07c1.5,0,2.64.35,3.4,1.06.76.71,1.15,1.64,1.15,2.81s-.38,2.09-1.14,2.79ZM192.64,358.93c0-.9-.25-1.58-.75-2.04s-1.3-.69-2.41-.69h-2.72v5.43h2.72c2.11,0,3.16-.9,3.16-2.7Z"/>
    <path class="cls-1" d="M198.99,358.35c.61-.36,1.36-.54,2.24-.54v1.41h-.37c-.98,0-1.76.26-2.35.79s-.89,1.41-.89,2.64v5.88h-1.35v-10.52h1.35v1.87c.3-.65.75-1.16,1.36-1.52Z"/>
    <path class="cls-1" d="M205.19,368.01c-.79-.44-1.41-1.07-1.87-1.89-.46-.81-.68-1.77-.68-2.86s.23-2.04.69-2.86c.46-.82,1.09-1.44,1.89-1.89.8-.44,1.69-.66,2.68-.66s1.89.22,2.69.66c.8.44,1.43,1.07,1.89,1.89.46.81.68,1.77.68,2.86s-.23,2.03-.69,2.85-1.1,1.45-1.91,1.9c-.81.44-1.71.66-2.7.66s-1.88-.22-2.67-.66ZM209.79,367.03c.59-.31,1.07-.79,1.43-1.42.37-.64.55-1.42.55-2.34s-.18-1.7-.54-2.34c-.36-.64-.84-1.11-1.43-1.42-.59-.32-1.23-.47-1.93-.47s-1.34.16-1.93.47c-.59.31-1.06.79-1.42,1.42s-.53,1.42-.53,2.34.17,1.71.53,2.34.82,1.11,1.41,1.42c.58.32,1.22.47,1.92.47s1.33-.16,1.93-.47Z"/>
    <path class="cls-1" d="M231.16,358.97c.78.78,1.16,1.9,1.16,3.38v6.16h-1.33v-6.01c0-1.14-.28-2.02-.83-2.62-.55-.6-1.3-.9-2.25-.9s-1.78.33-2.37.98c-.59.66-.89,1.61-.89,2.85v5.7h-1.33v-6.01c0-1.14-.28-2.02-.83-2.62-.55-.6-1.31-.9-2.27-.9s-1.78.33-2.37.98c-.59.66-.89,1.61-.89,2.85v5.7h-1.35v-10.52h1.35v1.81c.33-.66.81-1.15,1.43-1.49.62-.34,1.3-.51,2.06-.51.91,0,1.71.22,2.4.65s1.19,1.08,1.49,1.93c.28-.84.77-1.47,1.45-1.92.69-.44,1.47-.66,2.34-.66,1.23,0,2.24.39,3.02,1.16Z"/>
    <path class="cls-1" d="M238.23,358.55c.72-.47,1.59-.7,2.59-.7.95,0,1.81.22,2.57.66.76.44,1.36,1.07,1.79,1.89.43.81.65,1.76.65,2.84s-.21,2.03-.65,2.85-1.03,1.46-1.79,1.91-1.62.67-2.57.67-1.85-.24-2.58-.7-1.27-1.06-1.6-1.76v7.28h-1.33v-15.49h1.33v2.31c.33-.71.86-1.29,1.59-1.76ZM243.95,360.98c-.34-.64-.81-1.12-1.4-1.45s-1.26-.5-2-.5-1.38.17-1.97.52c-.6.35-1.07.84-1.42,1.48-.35.64-.52,1.39-.52,2.23s.17,1.59.52,2.23c.35.64.82,1.14,1.42,1.48.6.35,1.25.52,1.97.52s1.41-.17,2-.51,1.06-.84,1.4-1.48c.34-.65.51-1.4.51-2.26s-.17-1.63-.51-2.26Z"/>
    <path class="cls-1" d="M250.07,359.14v6.53c0,.64.12,1.09.37,1.33.24.24.67.37,1.29.37h1.23v1.16h-1.44c-.95,0-1.66-.22-2.12-.66-.46-.44-.69-1.17-.69-2.19v-6.53h-1.46v-1.14h1.46v-2.64h1.37v2.64h2.89v1.14h-2.89Z"/>
    <path class="cls-1" d="M261.8,356.15v5.03h5.11v1.12h-5.11v5.11h5.68v1.12h-7.03v-13.49h7.03v1.12h-5.68Z"/>
    <path class="cls-1" d="M278.16,358.97c.8.78,1.19,1.9,1.19,3.38v6.16h-1.33v-6.01c0-1.14-.29-2.02-.86-2.62-.57-.6-1.35-.9-2.34-.9s-1.82.32-2.43.96c-.6.64-.9,1.59-.9,2.83v5.74h-1.35v-10.52h1.35v1.79c.33-.64.81-1.13,1.44-1.47.63-.34,1.34-.51,2.14-.51,1.26,0,2.29.39,3.08,1.16Z"/>
    <path class="cls-1" d="M289.33,358.54c.73.46,1.26,1.05,1.58,1.75v-2.29h1.35v10.79c0,.96-.21,1.82-.63,2.56s-1,1.32-1.74,1.73-1.59.61-2.54.61c-1.35,0-2.47-.32-3.36-.96-.89-.64-1.45-1.51-1.67-2.62h1.33c.23.73.67,1.32,1.32,1.75.65.44,1.44.65,2.38.65.68,0,1.29-.14,1.83-.43.54-.29.96-.71,1.27-1.28.31-.56.46-1.23.46-2v-2.6c-.33.72-.86,1.31-1.59,1.78s-1.58.7-2.57.7-1.83-.22-2.59-.67-1.36-1.09-1.79-1.91c-.43-.82-.65-1.77-.65-2.85s.21-2.03.65-2.84c.43-.82,1.03-1.44,1.79-1.89.76-.44,1.63-.66,2.59-.66s1.85.23,2.58.69ZM290.39,361.03c-.35-.64-.82-1.14-1.42-1.48-.6-.35-1.25-.52-1.98-.52s-1.41.17-2,.5-1.06.82-1.4,1.45-.51,1.39-.51,2.26.17,1.62.51,2.26c.34.65.81,1.14,1.4,1.48s1.26.51,2,.51,1.38-.17,1.98-.52c.6-.35,1.07-.84,1.42-1.48.35-.64.52-1.39.52-2.23s-.17-1.59-.52-2.23Z"/>
    <path class="cls-1" d="M295.32,355.73c-.19-.19-.29-.43-.29-.71s.1-.52.29-.7.42-.28.69-.28.5.09.69.28c.19.19.29.42.29.7s-.1.52-.29.71-.42.29-.69.29-.5-.1-.69-.29ZM296.69,358v10.52h-1.35v-10.52h1.35Z"/>
    <path class="cls-1" d="M307.77,358.97c.8.78,1.19,1.9,1.19,3.38v6.16h-1.33v-6.01c0-1.14-.29-2.02-.86-2.62-.57-.6-1.35-.9-2.34-.9s-1.82.32-2.43.96c-.6.64-.9,1.59-.9,2.83v5.74h-1.35v-10.52h1.35v1.79c.33-.64.81-1.13,1.44-1.47.63-.34,1.34-.51,2.14-.51,1.26,0,2.29.39,3.08,1.16Z"/>
    <path class="cls-1" d="M321.42,363.78h-8.73c.04.8.23,1.48.58,2.04.35.57.8.99,1.37,1.28.56.29,1.18.43,1.85.43.87,0,1.61-.21,2.2-.64.6-.42.99-1,1.19-1.72h1.43c-.26,1.03-.81,1.87-1.65,2.52s-1.9.97-3.17.97c-.99,0-1.88-.22-2.66-.66-.78-.44-1.4-1.07-1.84-1.89-.44-.81-.66-1.77-.66-2.86s.22-2.05.65-2.87,1.05-1.45,1.83-1.89c.78-.44,1.68-.65,2.68-.65s1.88.22,2.63.65c.75.44,1.33,1.03,1.73,1.76.4.74.61,1.56.61,2.46,0,.46-.01.81-.04,1.06ZM319.62,360.68c-.33-.55-.78-.97-1.34-1.25s-1.18-.43-1.85-.43c-1,0-1.85.32-2.56.96-.71.64-1.1,1.55-1.17,2.72h7.4c.01-.78-.14-1.45-.47-2Z"/>
    <path class="cls-1" d="M333.41,363.78h-8.73c.04.8.23,1.48.58,2.04.35.57.8.99,1.37,1.28.56.29,1.18.43,1.85.43.87,0,1.61-.21,2.2-.64.6-.42.99-1,1.19-1.72h1.43c-.26,1.03-.81,1.87-1.65,2.52s-1.9.97-3.17.97c-.99,0-1.88-.22-2.66-.66-.78-.44-1.4-1.07-1.84-1.89-.44-.81-.66-1.77-.66-2.86s.22-2.05.65-2.87,1.05-1.45,1.83-1.89c.78-.44,1.68-.65,2.68-.65s1.88.22,2.63.65c.75.44,1.33,1.03,1.73,1.76.4.74.61,1.56.61,2.46,0,.46-.01.81-.04,1.06ZM331.61,360.68c-.33-.55-.78-.97-1.34-1.25s-1.18-.43-1.85-.43c-1,0-1.85.32-2.56.96-.71.64-1.1,1.55-1.17,2.72h7.4c.01-.78-.14-1.45-.47-2Z"/>
    <path class="cls-1" d="M338.62,358.35c.61-.36,1.36-.54,2.24-.54v1.41h-.37c-.98,0-1.76.26-2.35.79s-.89,1.41-.89,2.64v5.88h-1.35v-10.52h1.35v1.87c.3-.65.75-1.16,1.36-1.52Z"/>
    <path class="cls-1" d="M342.87,355.73c-.19-.19-.29-.43-.29-.71s.1-.52.29-.7.42-.28.69-.28.5.09.69.28c.19.19.29.42.29.7s-.1.52-.29.71-.42.29-.69.29-.5-.1-.69-.29ZM344.23,358v10.52h-1.35v-10.52h1.35Z"/>
    <path class="cls-1" d="M355.31,358.97c.8.78,1.19,1.9,1.19,3.38v6.16h-1.33v-6.01c0-1.14-.29-2.02-.86-2.62-.57-.6-1.35-.9-2.34-.9s-1.82.32-2.43.96c-.6.64-.9,1.59-.9,2.83v5.74h-1.35v-10.52h1.35v1.79c.33-.64.81-1.13,1.44-1.47.63-.34,1.34-.51,2.14-.51,1.26,0,2.29.39,3.08,1.16Z"/>
    <path class="cls-1" d="M366.48,358.54c.73.46,1.26,1.05,1.58,1.75v-2.29h1.35v10.79c0,.96-.21,1.82-.63,2.56s-1,1.32-1.74,1.73-1.59.61-2.54.61c-1.35,0-2.47-.32-3.36-.96-.89-.64-1.45-1.51-1.67-2.62h1.33c.23.73.67,1.32,1.32,1.75.65.44,1.44.65,2.38.65.68,0,1.29-.14,1.83-.43.54-.29.96-.71,1.27-1.28.31-.56.46-1.23.46-2v-2.6c-.33.72-.86,1.31-1.59,1.78s-1.58.7-2.57.7-1.83-.22-2.59-.67-1.36-1.09-1.79-1.91c-.43-.82-.65-1.77-.65-2.85s.21-2.03.65-2.84c.43-.82,1.03-1.44,1.79-1.89.76-.44,1.63-.66,2.59-.66s1.85.23,2.58.69ZM367.54,361.03c-.35-.64-.82-1.14-1.42-1.48-.6-.35-1.25-.52-1.98-.52s-1.41.17-2,.5-1.06.82-1.4,1.45-.51,1.39-.51,2.26.17,1.62.51,2.26c.34.65.81,1.14,1.4,1.48s1.26.51,2,.51,1.38-.17,1.98-.52c.6-.35,1.07-.84,1.42-1.48.35-.64.52-1.39.52-2.23s-.17-1.59-.52-2.23Z"/>
  </g>
</svg>